<?xml version="1.0" encoding="UTF-8"?>
<svg version="1.1" xmlns="http://www.w3.org/2000/svg" width="128" height="128">
<path d="M0 0 C0.80526123 -0.03077637 1.61052246 -0.06155273 2.44018555 -0.09326172 C6.61710327 -0.09413436 9.26240292 0.23078437 12.56640625 2.90625 C17.74215777 8.28449571 16.44262163 15.08318877 16.33203125 22.18359375 C15.50959592 44.96464739 1.60930811 64.86147031 -13.9375 80.5 C-14.86304687 81.08265625 -15.78859375 81.6653125 -16.7421875 82.265625 C-19.68197409 85.25772096 -19.45619366 87.24379306 -19.48828125 91.3125 C-19.45458184 93.01302391 -19.4207291 94.71354478 -19.38671875 96.4140625 C-19.4244575 101.21443208 -19.68426594 104.56328138 -23.24804688 108.19042969 C-26.68648565 110.85571662 -30.49494246 112.64131184 -34.4375 114.4375 C-35.27925781 114.84806641 -36.12101562 115.25863281 -36.98828125 115.68164062 C-44.26100798 119.07748862 -44.26100798 119.07748862 -48.9375 117.5 C-51.12744248 114.21508627 -51.29027339 112.66904361 -51.5625 108.8125 C-51.63726562 107.81863281 -51.71203125 106.82476562 -51.7890625 105.80078125 C-51.83804688 105.04152344 -51.88703125 104.28226562 -51.9375 103.5 C-53.0925 103.479375 -54.2475 103.45875 -55.4375 103.4375 C-59.10933942 102.97280663 -60.95571974 101.96471492 -63.6640625 99.46484375 C-64.35467773 98.83231689 -65.04529297 98.19979004 -65.75683594 97.5480957 C-66.47645508 96.87222412 -67.19607422 96.19635254 -67.9375 95.5 C-69.02853027 94.49876099 -69.02853027 94.49876099 -70.14160156 93.47729492 C-72.39457438 91.38867345 -74.60562124 89.26218785 -76.8125 87.125 C-77.94945312 86.06925781 -77.94945312 86.06925781 -79.109375 84.9921875 C-83.87951995 80.34087178 -86.73814463 76.34453451 -86.9375 69.5 C-86.4425 68.51 -86.4425 68.51 -85.9375 67.5 C-87.16726562 67.55220703 -87.16726562 67.55220703 -88.421875 67.60546875 C-89.49953125 67.63253906 -90.5771875 67.65960938 -91.6875 67.6875 C-93.28851563 67.73970703 -93.28851563 67.73970703 -94.921875 67.79296875 C-98.23777855 67.47082786 -99.52766673 66.72851086 -101.9375 64.5 C-101.43401734 58.56471399 -98.92566107 53.98414236 -96.1875 48.8125 C-95.54167969 47.53149414 -95.54167969 47.53149414 -94.8828125 46.22460938 C-90.5930097 38.04958099 -90.5930097 38.04958099 -85.9375 36.5 C-83.94445172 36.5447419 -81.94994336 36.59782781 -79.96191406 36.74609375 C-74.74053843 37.04202401 -70.09311763 36.97689438 -65.6640625 33.94238281 C-61.81367542 30.49450505 -58.41862963 26.66189275 -54.96484375 22.82421875 C-41.30321152 7.66381456 -19.97102241 0.4547989 0 0 Z M-32.75 24.5625 C-36.30890904 29.34160642 -36.62138683 33.72067466 -35.9375 39.5 C-34.05969649 44.90807411 -30.48612574 48.20950478 -25.9375 51.5 C-20.91887589 53.1728747 -15.65789882 53.53347349 -10.64453125 51.62890625 C-4.68038289 48.21602586 -2.12472923 44.1408363 0 37.625 C0.11206614 32.02169293 -1.78784372 27.32359272 -4.75 22.625 C-8.96926077 18.52628954 -12.63696243 17.29861415 -18.4375 17.0625 C-25.00755664 17.26725786 -28.49358333 19.72730713 -32.75 24.5625 Z " fill="#237CE3" transform="translate(111.9375,-0.5)"/>
<path d="M0 0 C4.56133747 3.81879416 7.46288128 7.34956435 8.6875 13.25 C8.78109497 19.62485747 7.94411883 24.28394469 3.6875 29.25 C-0.93784871 33.87534871 -6.90209307 36.04119958 -13.375 36.4375 C-14.3340625 36.3446875 -14.3340625 36.3446875 -15.3125 36.25 C-15.9725 33.61 -16.6325 30.97 -17.3125 28.25 C-20.06967702 29.62858851 -20.77571746 31.62466315 -22.3125 34.25 C-24.3125 36.25 -24.3125 36.25 -27.4375 36.375 C-28.38625 36.33375 -29.335 36.2925 -30.3125 36.25 C-30.76515108 24.11643637 -31.08614508 13.88783214 -24.4375 3.25 C-17.47040671 -3.30726427 -8.35046489 -4.41156636 0 0 Z " fill="#247CE3" transform="translate(30.3125,91.75)"/>
</svg>
