<?xml version="1.0" encoding="UTF-8"?>
<svg version="1.1" xmlns="http://www.w3.org/2000/svg" width="128" height="128">
<path d="M0 0 C54.58044554 0 54.58044554 0 63.28125 7.203125 C71.70835782 16.01328317 72.30994034 27.0964377 72.30078125 38.64453125 C72.30506638 39.85010178 72.3093515 41.0556723 72.31376648 42.29777527 C72.31949133 44.84019342 72.3200237 47.38262795 72.31567383 49.92504883 C72.31251877 53.78951344 72.33598073 57.65320824 72.36132812 61.51757812 C72.36360196 63.99739488 72.36430422 66.47721367 72.36328125 68.95703125 C72.372491 70.10009232 72.38170074 71.24315338 72.39118958 72.42085266 C72.33577086 82.15891089 71.19242059 91.55593751 64.796875 99.28125 C48.53889069 114.83236542 17.51693821 108 0 108 C0 72.36 0 36.72 0 0 Z M26.26757812 42.08789062 C25.58115234 42.78076172 24.89472656 43.47363281 24.1875 44.1875 C23.48173828 44.86103516 22.77597656 45.53457031 22.04882812 46.22851562 C21.38689453 46.88916016 20.72496094 47.54980469 20.04296875 48.23046875 C19.13067505 49.13381958 19.13067505 49.13381958 18.19995117 50.05541992 C16.76124943 51.97626928 16.76124943 51.97626928 17.12329102 54.51147461 C18.60755838 58.7245454 21.62624802 61.28286495 24.75 64.375 C25.37132812 65.02855469 25.99265625 65.68210937 26.6328125 66.35546875 C28.35708098 68.08337493 29.97405209 69.63740532 32 71 C34.87698065 71.10397136 34.87698065 71.10397136 37 70 C36.582687 65.07215495 34.45014073 63.0222855 30.9375 59.6875 C29.55884766 58.36298828 29.55884766 58.36298828 28.15234375 57.01171875 C27.44207031 56.34785156 26.73179688 55.68398437 26 55 C27.91844419 50.32577962 31.50331794 47.62144974 35.19921875 44.31640625 C37.32620179 42.11960923 37.32620179 42.11960923 36.76953125 39.21484375 C36.51558594 38.48394531 36.26164062 37.75304688 36 37 C30.80575841 37 29.8213541 38.60950816 26.26757812 42.08789062 Z " fill="#1779CE" transform="translate(46,10)"/>
<path d="M0 0 C0 35.64 0 71.28 0 108 C-17.10778986 104.88949275 -17.10778986 104.88949275 -23.375 97.375 C-29.0056308 88.79262305 -29.45960088 79.12035378 -29.43359375 69.1328125 C-29.4388356 67.93623016 -29.44407745 66.73964783 -29.44947815 65.50680542 C-29.4558648 62.99071016 -29.45460524 60.4745849 -29.44604492 57.95849609 C-29.43753868 54.14235416 -29.46634114 50.32771323 -29.49804688 46.51171875 C-29.49965945 44.05208378 -29.49908027 41.59244619 -29.49609375 39.1328125 C-29.50732773 38.00948517 -29.51856171 36.88615784 -29.53013611 35.72879028 C-29.45361306 26.88078721 -28.24045457 16.83456228 -22.8125 9.5 C-16.42822884 3.82509231 -8.69838414 0 0 0 Z " fill="#1779CE" transform="translate(39,10)"/>
</svg>
