<?xml version="1.0" encoding="UTF-8"?>
<svg version="1.1" xmlns="http://www.w3.org/2000/svg" width="64" height="64">
<path d="M0 0 C0.83208984 -0.00287018 1.66417969 -0.00574036 2.52148438 -0.00869751 C4.27995484 -0.01073812 6.03844801 -0.00520843 7.796875 0.00732422 C10.49009913 0.02337848 13.1818226 0.00747605 15.875 -0.01171875 C17.58333665 -0.00973632 19.29167236 -0.00589264 21 0 C22.20946289 -0.00910904 22.20946289 -0.00910904 23.44335938 -0.0184021 C29.07069654 0.05246793 29.07069654 0.05246793 31.21206665 1.77816772 C32.9936479 4.01946558 32.88760381 5.55897894 32.8984375 8.3984375 C32.90423828 9.8525 32.90423828 9.8525 32.91015625 11.3359375 C32.89855469 12.3465625 32.88695312 13.3571875 32.875 14.3984375 C32.88660156 15.4090625 32.89820313 16.4196875 32.91015625 17.4609375 C32.90628906 18.4303125 32.90242188 19.3996875 32.8984375 20.3984375 C32.89505371 21.2853125 32.89166992 22.1721875 32.88818359 23.0859375 C32.42299346 25.85718335 31.74304944 26.74895083 29.5 28.3984375 C26.72265625 28.796875 26.72265625 28.796875 23.5625 28.7734375 C22.52222656 28.78117187 21.48195312 28.78890625 20.41015625 28.796875 C17.17119906 28.35342046 15.96767902 27.44506545 13.5 25.3984375 C10.5 24.8984375 10.5 24.8984375 7.5 25.3984375 C6.90316406 25.8934375 6.30632813 26.3884375 5.69140625 26.8984375 C2.81853185 28.86489698 0.89044459 28.79910995 -2.5625 28.7734375 C-4.12677734 28.78503906 -4.12677734 28.78503906 -5.72265625 28.796875 C-8.91579497 28.33878759 -9.59327265 27.92076047 -11.5 25.3984375 C-11.88818359 23.0859375 -11.88818359 23.0859375 -11.8984375 20.3984375 C-11.90230469 19.4290625 -11.90617188 18.4596875 -11.91015625 17.4609375 C-11.89855469 16.4503125 -11.88695312 15.4396875 -11.875 14.3984375 C-11.88660156 13.3878125 -11.89820313 12.3771875 -11.91015625 11.3359375 C-11.90628906 10.3665625 -11.90242187 9.3971875 -11.8984375 8.3984375 C-11.89505371 7.5115625 -11.89166992 6.6246875 -11.88818359 5.7109375 C-10.81367639 -0.69015195 -5.34656154 -0.04026749 0 0 Z M6.5 8.3984375 C6.5 9.7184375 6.5 11.0384375 6.5 12.3984375 C9.14 12.3984375 11.78 12.3984375 14.5 12.3984375 C14.5 11.0784375 14.5 9.7584375 14.5 8.3984375 C11.86 8.3984375 9.22 8.3984375 6.5 8.3984375 Z " fill="#247DE2" transform="translate(21.5,17.6015625)"/>
<path d="M0 0 C1.65 0.99 3.3 1.98 5 3 C5.6640625 6.25 5.6640625 6.25 5.625 10 C5.63789062 11.2375 5.65078125 12.475 5.6640625 13.75 C5.44492187 14.8225 5.22578125 15.895 5 17 C3.35 17.99 1.7 18.98 0 20 C0 13.4 0 6.8 0 0 Z " fill="#237DE3" transform="translate(56,22)"/>
<path d="M0 0 C0 6.6 0 13.2 0 20 C-1.65 19.01 -3.3 18.02 -5 17 C-5.62890625 13.75 -5.62890625 13.75 -5.5625 10 C-5.56378906 8.7625 -5.56507812 7.525 -5.56640625 6.25 C-5 3 -5 3 -3.02734375 1.0625 C-1 0 -1 0 0 0 Z " fill="#237DE2" transform="translate(8,22)"/>
</svg>
